{"title":"Big Tits - Lisa Ann (XXX)(iPod,PSP,Zune)","uid":6251455,"size":127087347,"categoryP":"porn","categoryS":"movie_clips","magnet":"?xt=urn:btih:a68e3d0c3da90cdc4be29f32c5e61779125a2c35&amp;dn=Big+Tits+-+Lisa+Ann+%28XXX%29%28iPod%2CPSP%2CZune%29&amp;tr=udp%3A%2F%2Ftracker.openbittorrent.com%3A80&amp;tr=udp%3A%2F%2Fopen.demonii.com%3A1337&amp;tr=udp%3A%2F%2Ftracker.coppersurfer.tk%3A6969&amp;tr=udp%3A%2F%2Fexodus.desync.com%3A6969","seeders":0,"leechers":0,"uploader":null,"files":-1,"time":1300426133,"description":"SCREENSHOTS:\n &lt;a href=&quot;\nhttp://lnk.co/GW9EM&quot; rel=&quot;nofollow&quot; target=&quot;_NEW&quot;&gt;\nhttp://lnk.co/GW9EM&lt;/a&gt;\n\nVideo\nID                               : 1\nFormat                           : AVC\nFormat/Info                      : Advanced Video Codec\nFormat profile                   : &lt;a class=&quot;__cf_email__&quot; href=&quot;/cdn-cgi/l/email-protection&quot; data-cfemail=&quot;f2b09381979e9b9c97b2bec3dcc1&quot;&gt;[email&amp;#160;protected]&lt;/a&gt;&lt;script cf-hash='f9e31' type=&quot;text/javascript&quot;&gt;\n/* &lt;![CDATA[ */!function(){try{var t=&quot;currentScript&quot;in document?document.currentScript:function(){for(var t=document.getElementsByTagName(&quot;script&quot;),e=t.length;e--;)if(t[e].getAttribute(&quot;cf-hash&quot;))return t[e]}();if(t&amp;&amp;t.previousSibling){var e,r,n,i,c=t.previousSibling,a=c.getAttribute(&quot;data-cfemail&quot;);if(a){for(e=&quot;&quot;,r=parseInt(a.substr(0,2),16),n=2;a.length-n;n+=2)i=parseInt(a.substr(n,2),16)^r,e+=String.fromCharCode(i);e=document.createTextNode(e),c.parentNode.replaceChild(e,c)}}}catch(u){}}();/* ]]&gt; */&lt;/script&gt;\nFormat settings, CABAC           : No\nFormat settings, ReFrames        : 2 frames\nCodec ID                         : avc1\nCodec ID/Info                    : Advanced Video Coding\nDuration                         : 40mn 53s\nBit rate mode                    : Variable\nBit rate                         : 350 Kbps\nWidth                            : 368 pixels\nHeight                           : 272 pixels\nDisplay aspect ratio             : 4:3\nFrame rate mode                  : Variable\nFrame rate                       : 23.976 fps\nMinimum frame rate               : 23.974 fps\nMaximum frame rate               : 23.981 fps\nColor space                      : YUV\nChroma subsampling               : 4:2:0\nBit depth                        : 8 bits\nScan type                        : Progressive\nBits/(Pixel*Frame)               : 0.146\nStream size                      : 102 MiB (85%)\nWriting library                  : x264 core 112\n\nAudio\nID                               : 2\nFormat                           : AAC\nFormat/Info                      : Advanced Audio Codec\nFormat profile                   : LC\nCodec ID                         : 40\nDuration                         : 40mn 53s\nBit rate mode                    : Variable\nBit rate                         : 60.0 Kbps\nMaximum bit rate                 : 117 Kbps\nChannel(s)                       : 2 channels\nChannel positions                : Front: L R\nSampling rate                    : 44.1 KHz\nCompression mode                 : Lossy\nStream size                      : 17.6 MiB (15%)\nLanguage                         : English\n\nencoded for iPod,PSP,Zune and other handheld devices...:)\n","torrent":{"xt":"urn:btih:a68e3d0c3da90cdc4be29f32c5e61779125a2c35","amp;dn":"Big+Tits+-+Lisa+Ann+%28XXX%29%28iPod%2CPSP%2CZune%29","amp;tr":["udp%3A%2F%2Ftracker.openbittorrent.com%3A80","udp%3A%2F%2Fopen.demonii.com%3A1337","udp%3A%2F%2Ftracker.coppersurfer.tk%3A6969","udp%3A%2F%2Fexodus.desync.com%3A6969"],"infoHash":"a68e3d0c3da90cdc4be29f32c5e61779125a2c35","infoHashBuffer":{"type":"Buffer","data":[166,142,61,12,61,169,12,220,75,226,159,50,197,230,23,121,18,90,44,53]},"announce":[],"urlList":[]}}